<?xml version="1.0" standalone="no"?>
<!DOCTYPE svg PUBLIC "-//W3C//DTD SVG 20010904//EN"
 "http://www.w3.org/TR/2001/REC-SVG-20010904/DTD/svg10.dtd">
<svg version="1.0" xmlns="http://www.w3.org/2000/svg"
 width="225.000000pt" height="224.000000pt" viewBox="0 0 225.000000 224.000000"
 preserveAspectRatio="xMidYMid meet">

<g transform="translate(0.000000,224.000000) scale(0.100000,-0.100000)"
fill="#000000" stroke="none">
<path d="M772 1813 c219 -2 577 -2 795 0 219 1 40 2 -397 2 -437 0 -616 -1
-398 -2z"/>
<path d="M390 1100 l0 -690 780 0 780 0 0 690 0 690 -780 0 -780 0 0 -690z
m1550 0 l0 -680 -770 0 -770 0 0 680 0 680 770 0 770 0 0 -680z"/>
<path d="M553 1673 c32 -2 81 -2 110 0 29 2 3 3 -58 3 -60 0 -84 -1 -52 -3z"/>
<path d="M761 1667 c-8 -11 -6 -18 11 -33 12 -10 18 -13 14 -6 -4 7 -2 12 5
12 7 0 9 -9 5 -22 -3 -13 -6 -36 -6 -51 0 -16 -10 -38 -25 -52 -13 -14 -20
-25 -15 -25 5 0 18 12 29 26 l20 26 3 -109 3 -108 125 -1 125 0 -122 3 -123 4
0 159 0 160 -26 0 c-14 0 -23 4 -19 10 4 6 62 10 141 10 l134 0 2 -52 c1 -43
2 -46 5 -16 4 36 5 37 51 41 l47 3 -47 2 c-67 3 -60 20 10 24 31 2 -31 5 -139
6 -155 2 -199 -1 -208 -11z"/>
<path d="M495 1493 l0 -168 58 -1 57 -1 -55 4 -55 4 -3 165 -3 164 1 -167z"/>
<path d="M1215 1640 c10 -11 20 -20 23 -20 3 0 -3 9 -13 20 -10 11 -20 20 -23
20 -3 0 3 -9 13 -20z"/>
<path d="M645 1643 c17 -2 36 -12 43 -21 6 -8 12 -11 12 -6 0 19 -24 34 -54
33 l-31 -2 30 -4z"/>
<path d="M890 1585 l0 -65 30 0 c26 0 31 5 37 30 10 53 22 32 26 -45 l3 -75 0
77 c-1 61 -4 78 -16 78 -8 0 -17 -11 -20 -25 -4 -16 -14 -26 -28 -28 -20 -3
-22 1 -22 52 l0 56 36 0 c19 0 45 -5 57 -11 21 -10 21 -10 3 5 -11 9 -39 16
-63 16 l-43 0 0 -65z"/>
<path d="M1152 1593 c-2 -38 -7 -55 -19 -62 -10 -6 -13 -11 -7 -11 23 0 35 29
31 77 l-3 48 -2 -52z"/>
<path d="M1242 1585 c0 -16 2 -22 5 -12 2 9 2 23 0 30 -3 6 -5 -1 -5 -18z"/>
<path d="M1201 1524 c-19 -13 -29 -24 -23 -24 6 0 24 11 39 25 35 31 28 31
-16 -1z"/>
<path d="M665 1510 c-16 -7 -17 -9 -3 -9 9 -1 20 4 23 9 7 11 7 11 -20 0z"/>
<path d="M890 1425 l0 -75 38 2 c36 1 36 1 5 5 l-33 4 0 64 c0 52 3 64 18 68
13 4 11 5 -5 6 -22 1 -23 -3 -23 -74z"/>
<path d="M1200 1496 c0 -2 7 -9 15 -16 13 -11 14 -10 9 4 -5 14 -24 23 -24 12z"/>
<path d="M1133 1479 c12 -7 18 -24 19 -57 l1 -47 4 43 c4 43 -9 72 -31 72 -6
0 -3 -5 7 -11z"/>
<path d="M643 1473 c15 -2 37 -2 50 0 12 2 0 4 -28 4 -27 0 -38 -2 -22 -4z"/>
<path d="M952 1450 c0 -14 2 -19 5 -12 2 6 2 18 0 25 -3 6 -5 1 -5 -13z"/>
<path d="M1231 1444 c0 -11 3 -14 6 -6 3 7 2 16 -1 19 -3 4 -6 -2 -5 -13z"/>
<path d="M1024 1408 c-6 -19 -20 -38 -34 -45 -16 -8 -19 -13 -9 -13 21 0 46
28 54 63 10 38 0 34 -11 -5z"/>
<path d="M1243 1376 c1 -11 9 -21 17 -23 10 -3 11 -2 4 4 -6 4 -14 15 -17 23
-5 11 -6 9 -4 -4z"/>
<path d="M1160 1365 c0 -5 5 -17 10 -25 5 -8 10 -10 10 -5 0 6 -5 17 -10 25
-5 8 -10 11 -10 5z"/>
<path d="M1199 1317 c5 -5 21 -7 37 -5 27 3 26 4 -8 9 -22 3 -34 1 -29 -4z"/>
<path d="M573 1283 c37 -2 96 -2 130 0 34 2 4 3 -68 3 -71 0 -99 -1 -62 -3z"/>
<path d="M813 1283 c20 -2 54 -2 75 0 20 2 3 4 -38 4 -41 0 -58 -2 -37 -4z"/>
<path d="M1048 1283 c17 -2 47 -2 65 0 17 2 3 4 -33 4 -36 0 -50 -2 -32 -4z"/>
<path d="M1328 1283 c18 -2 45 -2 60 0 15 2 0 4 -33 4 -33 0 -45 -2 -27 -4z"/>
<path d="M1528 1283 c12 -2 30 -2 40 0 9 3 -1 5 -23 4 -22 0 -30 -2 -17 -4z"/>
<path d="M1818 1283 c25 -5 29 -19 7 -26 -11 -4 -10 -4 2 -3 28 2 22 31 -7 32
-22 1 -22 0 -2 -3z"/>
<path d="M494 1105 c0 -93 2 -133 3 -88 2 45 2 122 0 170 -1 48 -3 12 -3 -82z"/>
<path d="M910 1260 c-23 -7 -23 -8 -3 -9 12 -1 25 4 28 9 3 6 5 10 3 9 -2 -1
-14 -5 -28 -9z"/>
<path d="M1398 1263 l-28 -4 2 -127 2 -127 3 123 c3 112 5 122 23 122 10 0 22
5 25 10 3 6 5 9 3 9 -2 -1 -15 -4 -30 -6z"/>
<path d="M612 1188 l2 -73 3 67 4 67 37 4 37 4 -42 1 -43 2 2 -72z"/>
<path d="M772 1218 l1 -43 4 38 c8 76 22 34 26 -75 l3 -113 2 118 c2 111 1
117 -18 117 -17 0 -20 -6 -18 -42z"/>
<path d="M1028 1253 c15 -6 17 -248 2 -258 -5 -3 -10 -11 -10 -18 0 -6 7 -2
15 9 11 14 14 50 15 147 0 115 -2 127 -17 126 -11 0 -13 -3 -5 -6z"/>
<path d="M1518 1253 c9 -3 12 -38 12 -124 0 -114 -1 -121 -25 -144 -13 -14
-20 -25 -15 -25 5 0 18 12 29 26 19 24 21 40 21 150 0 112 -2 124 -17 123 -11
0 -13 -3 -5 -6z"/>
<path d="M1071 1122 c-1 -63 -6 -123 -12 -135 -10 -19 -9 -20 2 -9 16 15 30
204 18 237 -4 11 -8 -31 -8 -93z"/>
<path d="M1290 1200 c-4 -44 2 -185 8 -197 7 -11 5 144 -2 197 l-3 25 -3 -25z"/>
<path d="M1562 1115 l1 -110 7 90 c3 50 2 99 -2 110 -3 11 -6 -29 -6 -90z"/>
<path d="M1751 1213 c-1 -6 -4 -20 -7 -30 -5 -17 -5 -17 6 0 6 10 9 23 6 30
-3 9 -5 9 -5 0z"/>
<path d="M1779 1203 c0 -10 0 -67 1 -127 1 -81 -2 -111 -12 -117 -10 -7 -9 -9
5 -9 15 0 17 13 17 135 0 74 -2 135 -5 135 -3 0 -5 -8 -6 -17z"/>
<path d="M741 1194 c0 -11 3 -14 6 -6 3 7 2 16 -1 19 -3 4 -6 -2 -5 -13z"/>
<path d="M684 1183 c-3 -10 -10 -27 -16 -38 -10 -17 -9 -18 4 -7 9 7 18 24 21
37 5 29 -1 34 -9 8z"/>
<path d="M1620 1195 c0 -5 5 -17 10 -25 5 -8 10 -10 10 -5 0 6 -5 17 -10 25
-5 8 -10 11 -10 5z"/>
<path d="M713 1115 c0 -44 2 -61 4 -37 2 23 2 59 0 80 -2 20 -4 1 -4 -43z"/>
<path d="M1191 1149 c-2 -13 21 -69 29 -69 9 0 32 61 26 68 -3 2 -8 -7 -12
-22 -8 -33 -17 -33 -31 2 -6 15 -11 24 -12 21z"/>
<path d="M1261 1119 c-6 -18 -9 -34 -7 -36 2 -2 9 10 15 28 6 18 9 34 7 36 -2
2 -9 -10 -15 -28z"/>
<path d="M1596 1110 c3 -14 11 -32 16 -40 6 -10 7 -7 2 10 -3 14 -11 32 -16
40 -6 10 -7 7 -2 -10z"/>
<path d="M1650 1115 c0 -5 5 -17 10 -25 5 -8 10 -10 10 -5 0 6 -5 17 -10 25
-5 8 -10 11 -10 5z"/>
<path d="M612 1023 l2 -88 3 83 c4 84 8 90 46 71 21 -10 21 -10 3 5 -11 9 -28
16 -38 16 -16 0 -18 -9 -16 -87z"/>
<path d="M1736 1085 c-9 -26 -7 -32 5 -12 6 10 9 21 6 23 -2 3 -7 -2 -11 -11z"/>
<path d="M681 1054 c0 -11 3 -14 6 -6 3 7 2 16 -1 19 -3 4 -6 -2 -5 -13z"/>
<path d="M1136 1030 c3 -14 11 -32 16 -40 6 -10 7 -7 2 10 -3 14 -11 32 -16
40 -6 10 -7 7 -2 -10z"/>
<path d="M1721 1043 c-1 -6 -4 -20 -7 -30 -5 -17 -5 -17 6 0 6 10 9 23 6 30
-3 9 -5 9 -5 0z"/>
<path d="M1680 1029 c0 -5 5 -7 10 -4 6 3 10 8 10 11 0 2 -4 4 -10 4 -5 0 -10
-5 -10 -11z"/>
<path d="M900 1006 c0 -8 4 -17 9 -20 5 -4 7 3 4 14 -6 23 -13 26 -13 6z"/>
<path d="M810 1001 c0 -6 4 -13 10 -16 6 -3 7 1 4 9 -7 18 -14 21 -14 7z"/>
<path d="M1394 983 c11 -13 26 -23 35 -22 14 0 14 1 1 6 -8 3 -24 13 -35 22
-20 16 -20 16 -1 -6z"/>
<path d="M1325 960 c10 -11 20 -20 23 -20 3 0 -3 9 -13 20 -10 11 -20 20 -23
20 -3 0 3 -9 13 -20z"/>
<path d="M1524 958 l-19 -23 23 19 c21 18 27 26 19 26 -2 0 -12 -10 -23 -22z"/>
<path d="M1016 945 c-11 -8 -15 -15 -9 -15 6 0 16 7 23 15 16 19 11 19 -14 0z"/>
<path d="M1196 943 c-6 -14 -5 -15 5 -6 7 7 10 15 7 18 -3 3 -9 -2 -12 -12z"/>
<path d="M1810 956 c0 -2 9 -6 20 -9 11 -3 18 -1 14 4 -5 9 -34 13 -34 5z"/>
<path d="M867 939 c7 -7 15 -10 18 -7 3 3 -2 9 -12 12 -14 6 -15 5 -6 -5z"/>
<path d="M533 933 c15 -2 37 -2 50 0 12 2 0 4 -28 4 -27 0 -38 -2 -22 -4z"/>
<path d="M1435 930 l-50 -7 45 -1 c25 -1 52 3 60 8 8 5 11 9 5 8 -5 -1 -32 -4
-60 -8z"/>
<path d="M923 923 c15 -2 37 -2 50 0 12 2 0 4 -28 4 -27 0 -38 -2 -22 -4z"/>
<path d="M543 883 c26 -2 68 -2 95 0 26 2 4 3 -48 3 -52 0 -74 -1 -47 -3z"/>
<path d="M855 873 c70 -4 98 -16 58 -26 -14 -3 -13 -4 2 -3 11 1 20 8 20 16 0
12 -16 15 -78 16 l-77 0 75 -3z"/>
<path d="M1068 873 c34 -2 90 -2 125 0 34 2 6 3 -63 3 -69 0 -97 -1 -62 -3z"/>
<path d="M495 703 l0 -168 100 -1 100 0 -97 3 -98 4 -3 164 -3 165 1 -167z"/>
<path d="M610 710 c0 -82 3 -150 8 -150 4 0 6 31 4 69 -3 60 -1 70 15 74 16 4
16 5 1 6 -15 1 -18 11 -18 71 0 64 2 70 20 70 12 0 24 -10 30 -22 5 -14 9 -17
9 -7 1 22 -19 39 -46 39 -23 0 -23 0 -23 -150z"/>
<path d="M1005 850 c3 -6 13 -10 20 -10 11 0 15 -25 18 -120 l3 -120 -1 121
c0 118 -1 122 -23 130 -15 6 -21 5 -17 -1z"/>
<path d="M787 842 c8 -5 13 -46 16 -122 l3 -115 2 123 c2 110 0 122 -15 122
-13 0 -14 -3 -6 -8z"/>
<path d="M1074 836 c-3 -7 -3 -38 -1 -67 l3 -54 2 63 2 62 55 0 c42 0 60 -5
75 -20 11 -11 20 -16 20 -11 0 35 -143 60 -156 27z"/>
<path d="M756 827 c3 -10 9 -15 12 -12 3 3 0 11 -7 18 -10 9 -11 8 -5 -6z"/>
<path d="M1230 781 c0 -6 4 -13 10 -16 6 -3 7 1 4 9 -7 18 -14 21 -14 7z"/>
<path d="M738 748 l-27 -28 22 -11 c18 -9 20 -9 10 2 -10 10 -9 17 9 36 12 13
20 24 17 26 -2 1 -16 -10 -31 -25z"/>
<path d="M1193 705 c0 -44 2 -61 4 -37 2 23 2 59 0 80 -2 20 -4 1 -4 -43z"/>
<path d="M658 748 c-10 -10 -14 -18 -9 -18 10 0 36 29 30 34 -2 1 -12 -6 -21
-16z"/>
<path d="M1160 748 c0 -9 -6 -19 -12 -21 -10 -4 -10 -6 0 -6 14 -1 28 26 18
36 -3 4 -6 -1 -6 -9z"/>
<path d="M672 678 c7 -15 15 -23 17 -17 2 6 -4 18 -13 27 -15 15 -15 15 -4
-10z"/>
<path d="M1070 646 c0 -44 -5 -61 -26 -88 l-26 -33 31 33 c26 27 31 40 31 82
0 48 1 49 33 53 31 4 31 4 -5 5 l-38 2 0 -54z"/>
<path d="M1162 650 c0 -14 2 -19 5 -12 2 6 2 18 0 25 -3 6 -5 1 -5 -13z"/>
<path d="M1244 635 c-3 -8 -4 -20 -1 -27 3 -7 6 -3 6 9 1 12 7 24 14 26 9 4 9
6 -1 6 -7 1 -15 -6 -18 -14z"/>
<path d="M1272 583 l-2 -52 -97 -4 -98 -3 98 -2 c110 -2 111 -2 104 69 -3 44
-4 44 -5 -8z"/>
<path d="M775 599 c-4 -11 -21 -29 -38 -40 -18 -10 -26 -19 -19 -19 16 0 72
54 72 69 0 18 -8 13 -15 -10z"/>
<path d="M681 597 c-1 -10 -11 -22 -23 -27 -16 -6 -18 -9 -7 -9 21 -1 43 24
36 41 -3 8 -6 6 -6 -5z"/>
<path d="M901 599 c-1 -19 30 -49 50 -48 8 0 4 4 -9 9 -12 5 -27 20 -32 32 -5
15 -9 17 -9 7z"/>
<path d="M810 591 c0 -6 4 -13 10 -16 6 -3 7 1 4 9 -7 18 -14 21 -14 7z"/>
<path d="M1211 570 c-13 -11 -19 -20 -14 -20 6 0 18 9 28 20 23 25 17 25 -14
0z"/>
<path d="M995 560 c-16 -7 -17 -9 -3 -9 9 -1 20 4 23 9 7 11 7 11 -20 0z"/>
<path d="M867 530 c6 -7 36 -14 65 -16 l53 -3 -51 8 c-29 5 -58 12 -65 16 -11
6 -11 5 -2 -5z"/>
<path d="M772 383 c219 -2 577 -2 795 0 219 1 40 2 -397 2 -437 0 -616 -1
-398 -2z"/>
</g>
</svg>
